# xmcd
#
# Track frame offsets: 
#        183
#        23870
#        66125
#        103920
#        120088
#        153853
#        187275
#        233685
#        259543
#        285930
#
# Disc length: 4060 seconds
#
# Revision: 3
# Processed by: cddbd v1.5.2PL0 Copyright (c) Steve Scherf et al.
# Submitted via: ExactAudioCopyFreeDBPlugin 1.0
#
DISCID=7b0fda0a
DTITLE=Rory Gallagher - The Bullfrog Interlude
DYEAR=1992
DGENRE=Blues Rock
TTITLE0=Hands Up
TTITLE1=What In The World
TTITLE2=Walk On Hot Coals
TTITLE3=Banker's Blues
TTITLE4=Race The Breeze
TTITLE5=Hoodoo Blues
TTITLE6=Bullfrog Blues
TTITLE7=Tore Down
TTITLE8=Used To Be
TTITLE9=The Cuckoo
EXTD=
EXTT0=
EXTT1=
EXTT2=
EXTT3=
EXTT4=
EXTT5=
EXTT6=
EXTT7=
EXTT8=
EXTT9=
PLAYORDER=
